# xmcd
#
# Track frame offsets:
#	150
#	27438
#	48906
#	78285
#
# Disc length: 1671 seconds
#
# Revision: 0
# Processed by: cddbd v1.5.1PL0 Copyright (c) Steve Scherf et al.
# Submitted via: dBpowerAMP V4.0
#
DISCID=25068504
DTITLE=Marco Piccioni - The Unknower
DYEAR=2003
DGENRE=Blues
TTITLE0=The Unknower
TTITLE1=More Time
TTITLE2=Have You Ever Loved a Woman
TTITLE3=La Ricerca
EXTD=
EXTT0=
EXTT1=
EXTT2=
EXTT3=
PLAYORDER=
